<?xml version="1.0" standalone="no"?>
<!DOCTYPE svg PUBLIC "-//W3C//DTD SVG 20010904//EN"
 "http://www.w3.org/TR/2001/REC-SVG-20010904/DTD/svg10.dtd">
<svg version="1.0" xmlns="http://www.w3.org/2000/svg"
 width="1280.000000pt" height="1280.000000pt" viewBox="0 0 1280.000000 1280.000000"
 preserveAspectRatio="xMidYMid meet">
<metadata>
Created by potrace 1.11, written by Peter Selinger 2001-2013
</metadata>
<g transform="translate(0.000000,1280.000000) scale(0.100000,-0.100000)"
fill="#000000" stroke="none">
<path d="M7205 11100 l-50 -7 63 -1 c40 -1 61 2 57 8 -3 6 -9 9 -13 8 -4 0
-29 -4 -57 -8z"/>
<path d="M7047 10842 c-129 -69 -267 -168 -267 -192 0 -22 52 -202 87 -297
l26 -73 241 6 c132 4 242 8 244 9 2 2 40 88 86 191 76 172 82 191 68 207 -46
53 -312 207 -357 207 -11 0 -68 -26 -128 -58z"/>
<path d="M8000 10788 c-1 -23 -7 -61 -15 -83 -20 -56 -20 -60 25 -119 62 -81
136 -209 166 -287 22 -56 32 -71 53 -75 31 -7 121 -33 137 -40 12 -5 -3 92
-24 161 -48 155 -187 364 -303 456 l-39 31 0 -44z"/>
<path d="M6419 10703 c-101 -115 -219 -354 -253 -510 -7 -32 -7 -32 22 -21 24
9 34 23 52 77 32 93 83 193 146 287 40 60 54 89 54 117 0 19 4 47 10 61 13 35
8 33 -31 -11z"/>
<path d="M7567 9745 c-32 -65 -85 -162 -118 -217 l-60 -99 70 -77 c38 -42 98
-106 134 -140 l64 -64 84 40 c91 44 208 120 279 180 l44 39 -1 154 c0 126 -13
264 -25 274 -2 1 -64 5 -138 9 -74 3 -166 9 -205 12 l-70 6 -58 -117z"/>
<path d="M6465 9821 l-140 -16 1 -125 c1 -170 24 -283 67 -328 38 -40 111 -95
186 -140 54 -33 142 -75 146 -70 13 15 185 277 185 281 0 3 -33 55 -74 115
-41 61 -96 154 -122 207 -57 110 -29 102 -249 76z"/>
<path d="M5927 9663 c5 -15 3 -16 -8 -5 -27 25 -93 9 -234 -58 -33 -16 -76
-36 -95 -44 -19 -9 -42 -20 -50 -25 -8 -5 -40 -16 -70 -26 -30 -9 -68 -23 -85
-30 -108 -49 -144 -64 -175 -70 -19 -4 -41 -11 -50 -15 -18 -10 -97 -31 -125
-35 -130 -16 -315 -65 -384 -102 -24 -13 -50 -23 -56 -23 -7 0 -18 -7 -25 -15
-7 -8 -21 -15 -31 -15 -11 0 -19 -4 -19 -10 0 -14 -69 -30 -133 -30 -32 0 -67
-5 -78 -10 -13 -8 -19 -7 -19 0 0 7 -8 9 -19 5 -12 -3 -38 3 -61 15 -23 12
-39 17 -36 12 10 -16 169 -79 279 -112 56 -16 127 -38 159 -49 31 -11 59 -17
62 -14 10 10 7 25 -3 19 -21 -13 -37 6 -37 44 -1 35 2 40 22 40 12 0 24 6 27
14 3 7 28 16 56 20 27 4 103 23 168 43 107 33 129 36 233 36 63 0 135 -5 159
-12 25 -7 104 -16 177 -19 l132 -7 -31 27 -32 26 25 10 c82 31 161 74 207 111
58 46 132 140 169 213 24 47 33 80 13 45 -11 -18 -29 -14 -29 6 0 7 4 6 10 -3
6 -9 10 -10 10 -3 0 6 -4 14 -10 18 -5 3 -7 12 -4 19 3 8 1 17 -5 21 -7 4 -8
-1 -4 -12z"/>
<path d="M8259 9412 c-8 -15 -28 -48 -43 -74 -15 -27 -25 -48 -22 -48 7 0 90
140 85 145 -3 2 -11 -8 -20 -23z"/>
<path d="M6525 9085 c148 -135 342 -236 520 -271 112 -22 327 -22 439 0 83 16
216 64 216 77 0 4 -18 -2 -40 -12 -62 -30 -94 -33 -154 -14 -49 16 -65 16
-155 5 -66 -9 -134 -10 -203 -5 -56 4 -118 8 -135 9 -36 1 -44 12 -15 19 9 3
-3 3 -28 0 -29 -3 -59 1 -84 11 -21 9 -47 16 -57 16 -10 0 -23 8 -29 18 -11
16 -11 16 -6 -1 5 -14 2 -16 -13 -7 -11 5 -22 15 -24 22 -4 10 -6 10 -6 1 -1
-7 -6 -13 -12 -13 -5 0 -7 5 -3 12 4 6 3 8 -4 4 -12 -7 -45 22 -37 34 3 4 -3
6 -13 3 -16 -4 -86 34 -102 55 -3 4 -25 22 -50 41 l-45 33 40 -37z"/>
<path d="M8846 8988 c-120 -140 -144 -304 -76 -517 11 -35 17 -68 13 -74 -3
-6 -1 -7 5 -3 6 4 10 -1 9 -12 -1 -14 -7 -18 -22 -15 -17 4 -18 3 -5 -7 12
-10 11 -11 -8 -7 -12 3 -20 2 -18 -2 3 -4 -23 -9 -57 -10 -102 -5 -157 -1
-157 10 0 4 -12 6 -27 5 -16 -2 -31 1 -35 7 -3 6 -15 12 -27 14 -11 1 -39 10
-63 19 -70 25 -110 34 -165 34 -61 0 -142 -28 -121 -42 8 -5 3 -6 -14 -2 -16
3 -28 2 -28 -4 0 -5 -14 -15 -30 -22 -34 -14 -73 -57 -64 -71 3 -5 -2 -6 -11
-2 -13 5 -14 7 -3 14 7 5 9 9 4 9 -5 0 -31 -16 -57 -35 -27 -19 -56 -35 -65
-35 -8 0 -12 -4 -9 -10 3 -5 -3 -10 -14 -10 -11 0 -23 -4 -26 -10 -9 -15 -95
-50 -124 -51 -23 0 -24 -1 -6 -9 l20 -9 -20 -2 c-11 -1 -25 -2 -32 -2 -6 0 -9
-5 -7 -11 6 -15 -80 -13 -140 4 -46 13 -57 24 -33 33 6 3 -4 6 -24 6 -52 1
-97 23 -120 57 -10 16 -19 25 -19 19 0 -5 -11 13 -24 40 l-23 50 -6 -40 c-3
-22 -9 -81 -13 -131 l-6 -90 57 -80 c38 -52 63 -78 74 -76 36 8 369 186 364
195 -3 6 -1 7 5 4 5 -4 77 32 159 79 353 205 430 224 605 147 85 -37 190 -37
338 2 65 16 120 25 145 22 22 -2 54 -1 70 3 l30 8 -32 1 c-87 3 -149 67 -182
186 -6 22 -15 105 -20 185 -10 161 -7 176 52 237 17 18 28 35 25 38 -3 3 -22
-13 -42 -37z m-1046 -788 c-8 -5 -19 -10 -25 -10 -5 0 -3 5 5 10 8 5 20 10 25
10 6 0 3 -5 -5 -10z m10 -15 c0 -2 -10 -9 -22 -15 -22 -11 -22 -10 -4 4 21 17
26 19 26 11z m-77 -38 c-3 -5 -11 -6 -18 -3 -7 2 -17 0 -23 -6 -6 -6 -12 -6
-17 3 -5 7 -4 10 3 5 6 -3 13 -3 16 2 2 4 14 8 25 8 11 0 17 -4 14 -9z m-59
-26 c4 -5 -3 -7 -14 -4 -23 6 -26 13 -6 13 8 0 17 -4 20 -9z"/>
<path d="M8503 8990 c-49 -23 -89 -68 -73 -84 5 -5 38 -11 73 -13 51 -3 75 2
141 29 44 18 82 39 84 47 3 8 0 11 -6 7 -6 -4 -37 3 -69 14 -71 25 -96 25
-150 0z"/>
<path d="M7080 8879 c25 -4 63 -7 85 -7 39 1 39 1 -10 8 -27 5 -66 8 -85 8
-32 0 -31 -1 10 -9z"/>
<path d="M7238 8873 c12 -2 30 -2 40 0 9 3 -1 5 -23 4 -22 0 -30 -2 -17 -4z"/>
<path d="M5177 8317 c-9 -73 -24 -185 -32 -250 l-16 -119 39 -66 c22 -37 54
-96 72 -132 45 -89 64 -112 79 -97 10 9 11 8 5 -6 -4 -13 -2 -16 9 -11 20 7
33 -14 18 -29 -9 -9 -11 -8 -6 6 4 10 2 17 -5 17 -17 0 -8 -33 10 -35 9 -2 16
5 17 14 1 9 3 21 4 26 6 19 -12 141 -27 188 -9 26 -34 85 -56 130 -58 119 -76
201 -79 356 -1 73 -5 134 -9 136 -3 2 -14 -55 -23 -128z m125 -641 c7 -13 7
-16 -1 -12 -6 4 -18 22 -27 39 -14 30 -14 31 1 12 9 -11 21 -28 27 -39z"/>
<path d="M5311 7605 c0 -5 6 -21 14 -35 8 -14 14 -20 14 -15 0 6 -6 21 -14 35
-8 14 -14 21 -14 15z"/>
<path d="M5400 7509 c-7 -11 -10 -23 -7 -25 2 -2 9 7 15 21 14 30 7 33 -8 4z"/>
<path d="M5195 6985 c-27 -8 -51 -19 -53 -25 -2 -5 -7 -8 -12 -5 -4 3 -45 -11
-89 -30 -45 -19 -99 -39 -121 -45 -25 -7 -38 -15 -34 -22 4 -6 3 -8 -3 -5 -6
4 -33 -2 -61 -12 -29 -11 -71 -22 -94 -26 -24 -4 -46 -12 -49 -18 -4 -6 -35
-1 -85 15 -43 14 -70 20 -61 13 9 -7 49 -22 89 -35 93 -29 207 -25 320 14 76
25 419 178 413 184 -10 10 -119 8 -160 -3z"/>
<path d="M5820 6869 c-41 -6 -117 -8 -169 -6 -61 3 -88 1 -77 -5 25 -14 197
-13 305 2 106 14 178 9 295 -22 86 -22 196 -22 218 1 11 10 8 10 -15 2 -43
-16 -106 -13 -199 9 -99 25 -255 33 -358 19z"/>
<path d="M7152 5158 c-61 -99 -257 -516 -248 -525 3 -4 6 -1 6 5 0 7 4 12 9
12 5 0 7 -9 4 -20 -3 -11 0 -20 6 -20 6 0 11 -11 11 -24 0 -14 4 -28 10 -31 6
-4 7 1 3 12 -3 10 5 2 18 -17 28 -40 66 -54 92 -32 9 8 17 21 17 28 0 7 9 16
20 19 11 3 23 18 27 33 3 15 17 43 30 62 12 19 23 44 23 55 0 11 12 56 26 100
33 102 41 190 23 263 -12 54 -39 118 -39 97 0 -5 -4 -4 -9 3 -6 10 -13 5 -29
-20z"/>
<path d="M6039 2813 c-13 -16 -12 -17 4 -4 16 13 21 21 13 21 -2 0 -10 -8 -17
-17z"/>
<path d="M5858 2632 c-76 -75 -141 -141 -145 -147 -4 -5 59 55 140 135 136
134 152 150 145 150 -2 0 -65 -62 -140 -138z"/>
<path d="M5604 2389 c-19 -22 -19 -22 4 -8 12 8 22 17 22 21 0 12 -6 9 -26
-13z"/>
<path d="M5556 2335 c-11 -8 -15 -15 -9 -15 6 0 16 7 23 15 16 19 11 19 -14 0z"/>
<path d="M5498 2278 c-16 -16 -28 -33 -28 -38 0 -4 -5 -11 -10 -13 -6 -3 -7
-5 -2 -4 11 3 86 87 76 86 -5 -1 -21 -15 -36 -31z"/>
<path d="M6540 2156 c0 -2 8 -10 18 -17 15 -13 16 -12 3 4 -13 16 -21 21 -21
13z"/>
<path d="M6580 2126 c0 -3 31 -23 70 -46 38 -22 69 -46 67 -52 -6 -30 167 -95
313 -118 41 -7 113 -21 159 -32 45 -10 85 -17 88 -15 2 3 -11 8 -29 12 -30 7
-162 54 -378 134 -41 16 -109 41 -150 56 -41 15 -90 36 -107 47 -18 11 -33 17
-33 14z"/>
</g>
</svg>
